<svg width="125" height="29" viewBox="0 0 125 29" fill="none" xmlns="http://www.w3.org/2000/svg">
<path d="M0 5C0 2.23858 2.23858 0 5 0L120 0C122.761 0 125 2.23858 125 5V24C125 26.7614 122.761 29 120 29L5 29C2.23858 29 0 26.7614 0 24L0 5Z" fill="#333333"/>
<path d="M0 5C0 2.23858 2.23858 0 5 0L120 0C122.761 0 125 2.23858 125 5V24C125 26.7614 122.761 29 120 29L5 29C2.23858 29 0 26.7614 0 24L0 5Z" fill="#333333"/>
<path d="M17.4626 23.264C15.8933 23.264 14.4706 22.9267 13.1946 22.252C11.9333 21.5627 10.9359 20.6167 10.2026 19.414C9.48393 18.1967 9.1246 16.8253 9.1246 15.3C9.1246 13.7747 9.48393 12.4107 10.2026 11.208C10.9359 9.99067 11.9333 9.04467 13.1946 8.37C14.4706 7.68067 15.9006 7.336 17.4846 7.336C18.8193 7.336 20.0219 7.57067 21.0926 8.04C22.1779 8.50933 23.0873 9.184 23.8206 10.064L21.5326 12.176C20.4913 10.9733 19.2006 10.372 17.6606 10.372C16.7073 10.372 15.8566 10.5847 15.1086 11.01C14.3606 11.4207 13.7739 12 13.3486 12.748C12.9379 13.496 12.7326 14.3467 12.7326 15.3C12.7326 16.2533 12.9379 17.104 13.3486 17.852C13.7739 18.6 14.3606 19.1867 15.1086 19.612C15.8566 20.0227 16.7073 20.228 17.6606 20.228C19.2006 20.228 20.4913 19.6193 21.5326 18.402L23.8206 20.514C23.0873 21.4087 22.1779 22.0907 21.0926 22.56C20.0073 23.0293 18.7973 23.264 17.4626 23.264ZM30.6734 10.988C32.5068 10.988 33.9148 11.428 34.8974 12.308C35.8801 13.1733 36.3714 14.486 36.3714 16.246V23H33.1594V21.526C32.5141 22.626 31.3114 23.176 29.5514 23.176C28.6421 23.176 27.8501 23.022 27.1754 22.714C26.5154 22.406 26.0094 21.9807 25.6574 21.438C25.3054 20.8953 25.1294 20.2793 25.1294 19.59C25.1294 18.49 25.5401 17.6247 26.3614 16.994C27.1974 16.3633 28.4808 16.048 30.2114 16.048H32.9394C32.9394 15.3 32.7121 14.728 32.2574 14.332C31.8028 13.9213 31.1208 13.716 30.2114 13.716C29.5808 13.716 28.9574 13.8187 28.3414 14.024C27.7401 14.2147 27.2268 14.4787 26.8014 14.816L25.5694 12.418C26.2148 11.9633 26.9848 11.6113 27.8794 11.362C28.7888 11.1127 29.7201 10.988 30.6734 10.988ZM30.4094 20.866C30.9961 20.866 31.5168 20.734 31.9714 20.47C32.4261 20.1913 32.7488 19.788 32.9394 19.26V18.05H30.5854C29.1774 18.05 28.4734 18.512 28.4734 19.436C28.4734 19.876 28.6421 20.228 28.9794 20.492C29.3314 20.7413 29.8081 20.866 30.4094 20.866ZM47.1116 22.428C46.7742 22.6773 46.3562 22.868 45.8576 23C45.3736 23.1173 44.8602 23.176 44.3176 23.176C42.9096 23.176 41.8169 22.8167 41.0396 22.098C40.2769 21.3793 39.8956 20.3233 39.8956 18.93V14.068L38.0696 14.068V11.428L39.8956 11.428V8.546H43.3276V11.428H46.2756V14.068H43.3276V18.886C43.3276 19.3847 43.4522 19.7733 43.7016 20.052C43.9656 20.316 44.3322 20.448 44.8016 20.448C45.3442 20.448 45.8062 20.3013 46.1876 20.008L47.1116 22.428ZM60.2669 17.126C60.2669 17.17 60.2449 17.478 60.2009 18.05H51.2469C51.4082 18.7833 51.7895 19.3627 52.3909 19.788C52.9922 20.2133 53.7402 20.426 54.6349 20.426C55.2509 20.426 55.7935 20.338 56.2629 20.162C56.7469 19.9713 57.1942 19.678 57.6049 19.282L59.4309 21.262C58.3162 22.538 56.6882 23.176 54.5469 23.176C53.2122 23.176 52.0315 22.9193 51.0049 22.406C49.9782 21.878 49.1862 21.152 48.6289 20.228C48.0715 19.304 47.7929 18.2553 47.7929 17.082C47.7929 15.9233 48.0642 14.882 48.6069 13.958C49.1642 13.0193 49.9195 12.2933 50.8729 11.78C51.8409 11.252 52.9189 10.988 54.1069 10.988C55.2655 10.988 56.3142 11.2373 57.2529 11.736C58.1915 12.2347 58.9249 12.9533 59.4529 13.892C59.9955 14.816 60.2669 15.894 60.2669 17.126ZM54.1289 13.584C53.3515 13.584 52.6989 13.804 52.1709 14.244C51.6429 14.684 51.3202 15.2853 51.2029 16.048H57.0329C56.9155 15.3 56.5929 14.706 56.0649 14.266C55.5369 13.8113 54.8915 13.584 54.1289 13.584ZM74.7618 11.164V21.02C74.7618 23.1907 74.1971 24.804 73.0678 25.86C71.9384 26.916 70.2884 27.444 68.1178 27.444C66.9738 27.444 65.8884 27.3047 64.8618 27.026C63.8351 26.7473 62.9844 26.344 62.3098 25.816L63.6738 23.352C64.1724 23.7627 64.8031 24.0853 65.5658 24.32C66.3284 24.5693 67.0911 24.694 67.8538 24.694C69.0418 24.694 69.9144 24.4227 70.4718 23.88C71.0438 23.352 71.3298 22.5453 71.3298 21.46V20.954C70.4351 21.9367 69.1884 22.428 67.5898 22.428C66.5044 22.428 65.5071 22.1933 64.5978 21.724C63.7031 21.24 62.9918 20.5653 62.4638 19.7C61.9358 18.8347 61.6718 17.8373 61.6718 16.708C61.6718 15.5787 61.9358 14.5813 62.4638 13.716C62.9918 12.8507 63.7031 12.1833 64.5978 11.714C65.5071 11.23 66.5044 10.988 67.5898 10.988C69.3058 10.988 70.6111 11.5527 71.5058 12.682V11.164H74.7618ZM68.2718 19.612C69.1811 19.612 69.9218 19.348 70.4938 18.82C71.0804 18.2773 71.3738 17.5733 71.3738 16.708C71.3738 15.8427 71.0804 15.146 70.4938 14.618C69.9218 14.0753 69.1811 13.804 68.2718 13.804C67.3624 13.804 66.6144 14.0753 66.0278 14.618C65.4411 15.146 65.1478 15.8427 65.1478 16.708C65.1478 17.5733 65.4411 18.2773 66.0278 18.82C66.6144 19.348 67.3624 19.612 68.2718 19.612ZM83.5881 23.176C82.3414 23.176 81.2194 22.9193 80.2221 22.406C79.2394 21.878 78.4694 21.152 77.9121 20.228C77.3547 19.304 77.0761 18.2553 77.0761 17.082C77.0761 15.9087 77.3547 14.86 77.9121 13.936C78.4694 13.012 79.2394 12.2933 80.2221 11.78C81.2194 11.252 82.3414 10.988 83.5881 10.988C84.8347 10.988 85.9494 11.252 86.9321 11.78C87.9147 12.2933 88.6847 13.012 89.2421 13.936C89.7994 14.86 90.0781 15.9087 90.0781 17.082C90.0781 18.2553 89.7994 19.304 89.2421 20.228C88.6847 21.152 87.9147 21.878 86.9321 22.406C85.9494 22.9193 84.8347 23.176 83.5881 23.176ZM83.5881 20.36C84.4681 20.36 85.1867 20.0667 85.7441 19.48C86.3161 18.8787 86.6021 18.0793 86.6021 17.082C86.6021 16.0847 86.3161 15.2927 85.7441 14.706C85.1867 14.1047 84.4681 13.804 83.5881 13.804C82.7081 13.804 81.9821 14.1047 81.4101 14.706C80.8381 15.2927 80.5521 16.0847 80.5521 17.082C80.5521 18.0793 80.8381 18.8787 81.4101 19.48C81.9821 20.0667 82.7081 20.36 83.5881 20.36ZM95.6501 12.726C96.0608 12.154 96.6108 11.7213 97.3001 11.428C98.0041 11.1347 98.8108 10.988 99.7201 10.988V14.156C99.3388 14.1267 99.0821 14.112 98.9501 14.112C97.9674 14.112 97.1974 14.3907 96.6401 14.948C96.0828 15.4907 95.8041 16.312 95.8041 17.412V23H92.3721V11.164H95.6501V12.726ZM113.917 11.164L108.571 23.726C108.028 25.09 107.354 26.0507 106.547 26.608C105.755 27.1653 104.794 27.444 103.665 27.444C103.049 27.444 102.44 27.3487 101.839 27.158C101.238 26.9673 100.746 26.7033 100.365 26.366L101.619 23.924C101.883 24.1587 102.184 24.342 102.521 24.474C102.873 24.606 103.218 24.672 103.555 24.672C104.024 24.672 104.406 24.5547 104.699 24.32C104.992 24.1 105.256 23.726 105.491 23.198L105.535 23.088L100.409 11.164H103.951L107.273 19.194L110.617 11.164H113.917Z" fill="#FFCFDB"/>
</svg>
