<svg width="70" height="29" viewBox="0 0 70 29" fill="none" xmlns="http://www.w3.org/2000/svg">
<path d="M0 5C0 2.23858 2.23858 0 5 0L65 0C67.7614 0 70 2.23858 70 5V24C70 26.7614 67.7614 29 65 29H5C2.23858 29 0 26.7614 0 24L0 5Z" fill="#333333"/>
<path d="M0 5C0 2.23858 2.23858 0 5 0L65 0C67.7614 0 70 2.23858 70 5V24C70 26.7614 67.7614 29 65 29H5C2.23858 29 0 26.7614 0 24L0 5Z" fill="#333333"/>
<path d="M14.39 9.46V13.53H21.518V16.39H14.39V22H10.826V6.6H22.464V9.46H14.39ZM27.6979 11.726C28.1086 11.154 28.6586 10.7213 29.3479 10.428C30.0519 10.1347 30.8586 9.988 31.7679 9.988V13.156C31.3866 13.1267 31.1299 13.112 30.9979 13.112C30.0153 13.112 29.2453 13.3907 28.6879 13.948C28.1306 14.4907 27.8519 15.312 27.8519 16.412V22H24.4199V10.164H27.6979V11.726ZM45.2952 16.126C45.2952 16.17 45.2732 16.478 45.2292 17.05H36.2752C36.4365 17.7833 36.8179 18.3627 37.4192 18.788C38.0205 19.2133 38.7685 19.426 39.6632 19.426C40.2792 19.426 40.8219 19.338 41.2912 19.162C41.7752 18.9713 42.2225 18.678 42.6332 18.282L44.4592 20.262C43.3445 21.538 41.7165 22.176 39.5752 22.176C38.2405 22.176 37.0599 21.9193 36.0332 21.406C35.0065 20.878 34.2145 20.152 33.6572 19.228C33.0999 18.304 32.8212 17.2553 32.8212 16.082C32.8212 14.9233 33.0925 13.882 33.6352 12.958C34.1925 12.0193 34.9479 11.2933 35.9012 10.78C36.8692 10.252 37.9472 9.988 39.1352 9.988C40.2939 9.988 41.3425 10.2373 42.2812 10.736C43.2199 11.2347 43.9532 11.9533 44.4812 12.892C45.0239 13.816 45.2952 14.894 45.2952 16.126ZM39.1572 12.584C38.3799 12.584 37.7272 12.804 37.1992 13.244C36.6712 13.684 36.3485 14.2853 36.2312 15.048H42.0612C41.9439 14.3 41.6212 13.706 41.0932 13.266C40.5652 12.8113 39.9199 12.584 39.1572 12.584ZM59.1741 16.126C59.1741 16.17 59.1521 16.478 59.1081 17.05H50.1541C50.3154 17.7833 50.6968 18.3627 51.2981 18.788C51.8994 19.2133 52.6474 19.426 53.5421 19.426C54.1581 19.426 54.7008 19.338 55.1701 19.162C55.6541 18.9713 56.1014 18.678 56.5121 18.282L58.3381 20.262C57.2234 21.538 55.5954 22.176 53.4541 22.176C52.1194 22.176 50.9388 21.9193 49.9121 21.406C48.8854 20.878 48.0934 20.152 47.5361 19.228C46.9788 18.304 46.7001 17.2553 46.7001 16.082C46.7001 14.9233 46.9714 13.882 47.5141 12.958C48.0714 12.0193 48.8268 11.2933 49.7801 10.78C50.7481 10.252 51.8261 9.988 53.0141 9.988C54.1728 9.988 55.2214 10.2373 56.1601 10.736C57.0988 11.2347 57.8321 11.9533 58.3601 12.892C58.9028 13.816 59.1741 14.894 59.1741 16.126ZM53.0361 12.584C52.2588 12.584 51.6061 12.804 51.0781 13.244C50.5501 13.684 50.2274 14.2853 50.1101 15.048H55.9401C55.8228 14.3 55.5001 13.706 54.9721 13.266C54.4441 12.8113 53.7988 12.584 53.0361 12.584Z" fill="#FFCFDB"/>
</svg>
