<svg width="102" height="29" viewBox="0 0 102 29" fill="none" xmlns="http://www.w3.org/2000/svg">
<path d="M0 5C0 2.23858 2.23858 0 5 0L88.3076 0C91.069 0 93.3076 2.23858 93.3076 5V24C93.3076 26.7614 91.069 29 88.3076 29L5 29C2.23857 29 0 26.7614 0 24L0 5Z" fill="#333333"/>
<path d="M0 5C0 2.23858 2.23858 0 5 0L88.3076 0C91.069 0 93.3076 2.23858 93.3076 5V24C93.3076 26.7614 91.069 29 88.3076 29L5 29C2.23857 29 0 26.7614 0 24L0 5Z" fill="#333333"/>
<path d="M6.826 5.6H10.39V18.096H18.112V21H6.826L6.826 5.6ZM24.7643 8.988C26.5976 8.988 28.0056 9.428 28.9883 10.308C29.9709 11.1733 30.4623 12.486 30.4623 14.246V21H27.2503V19.526C26.6049 20.626 25.4023 21.176 23.6423 21.176C22.7329 21.176 21.9409 21.022 21.2663 20.714C20.6063 20.406 20.1003 19.9807 19.7483 19.438C19.3963 18.8953 19.2203 18.2793 19.2203 17.59C19.2203 16.49 19.6309 15.6247 20.4523 14.994C21.2883 14.3633 22.5716 14.048 24.3023 14.048H27.0303C27.0303 13.3 26.8029 12.728 26.3483 12.332C25.8936 11.9213 25.2116 11.716 24.3023 11.716C23.6716 11.716 23.0483 11.8187 22.4323 12.024C21.8309 12.2147 21.3176 12.4787 20.8923 12.816L19.6603 10.418C20.3056 9.96333 21.0756 9.61133 21.9703 9.362C22.8796 9.11267 23.8109 8.988 24.7643 8.988ZM24.5003 18.866C25.0869 18.866 25.6076 18.734 26.0623 18.47C26.5169 18.1913 26.8396 17.788 27.0303 17.26V16.05H24.6763C23.2683 16.05 22.5643 16.512 22.5643 17.436C22.5643 17.876 22.7329 18.228 23.0703 18.492C23.4223 18.7413 23.8989 18.866 24.5003 18.866ZM37.5504 21.176C36.5677 21.176 35.607 21.0587 34.6684 20.824C33.7297 20.5747 32.9817 20.2667 32.4244 19.9L33.5684 17.436C34.0964 17.7733 34.7344 18.052 35.4824 18.272C36.2304 18.4773 36.9637 18.58 37.6824 18.58C39.1344 18.58 39.8604 18.2207 39.8604 17.502C39.8604 17.1647 39.6624 16.9227 39.2664 16.776C38.8704 16.6293 38.2617 16.5047 37.4404 16.402C36.4724 16.2553 35.673 16.0867 35.0424 15.896C34.4117 15.7053 33.8617 15.368 33.3924 14.884C32.9377 14.4 32.7104 13.7107 32.7104 12.816C32.7104 12.068 32.923 11.408 33.3484 10.836C33.7884 10.2493 34.419 9.79467 35.2404 9.472C36.0764 9.14933 37.059 8.988 38.1884 8.988C39.0244 8.988 39.853 9.08333 40.6744 9.274C41.5104 9.45 42.1997 9.69933 42.7424 10.022L41.5984 12.464C40.557 11.8773 39.4204 11.584 38.1884 11.584C37.455 11.584 36.905 11.6867 36.5384 11.892C36.1717 12.0973 35.9884 12.3613 35.9884 12.684C35.9884 13.0507 36.1864 13.3073 36.5824 13.454C36.9784 13.6007 37.609 13.74 38.4744 13.872C39.4424 14.0333 40.2344 14.2093 40.8504 14.4C41.4664 14.576 42.0017 14.906 42.4564 15.39C42.911 15.874 43.1384 16.5487 43.1384 17.414C43.1384 18.1473 42.9184 18.8 42.4784 19.372C42.0384 19.944 41.393 20.3913 40.5424 20.714C39.7064 21.022 38.709 21.176 37.5504 21.176ZM52.8899 20.428C52.5525 20.6773 52.1345 20.868 51.6359 21C51.1519 21.1173 50.6385 21.176 50.0959 21.176C48.6879 21.176 47.5952 20.8167 46.8179 20.098C46.0552 19.3793 45.6739 18.3233 45.6739 16.93V12.068H43.8479V9.428H45.6739V6.546H49.1059V9.428H52.0539V12.068H49.1059V16.886C49.1059 17.3847 49.2305 17.7733 49.4799 18.052C49.7439 18.316 50.1105 18.448 50.5799 18.448C51.1225 18.448 51.5845 18.3013 51.9659 18.008L52.8899 20.428ZM66.0452 15.126C66.0452 15.17 66.0232 15.478 65.9792 16.05H57.0252C57.1865 16.7833 57.5679 17.3627 58.1692 17.788C58.7705 18.2133 59.5185 18.426 60.4132 18.426C61.0292 18.426 61.5719 18.338 62.0412 18.162C62.5252 17.9713 62.9725 17.678 63.3832 17.282L65.2092 19.262C64.0945 20.538 62.4665 21.176 60.3252 21.176C58.9905 21.176 57.8099 20.9193 56.7832 20.406C55.7565 19.878 54.9645 19.152 54.4072 18.228C53.8499 17.304 53.5712 16.2553 53.5712 15.082C53.5712 13.9233 53.8425 12.882 54.3852 11.958C54.9425 11.0193 55.6979 10.2933 56.6512 9.78C57.6192 9.252 58.6972 8.988 59.8852 8.988C61.0439 8.988 62.0925 9.23733 63.0312 9.736C63.9699 10.2347 64.7032 10.9533 65.2312 11.892C65.7739 12.816 66.0452 13.894 66.0452 15.126ZM59.9072 11.584C59.1299 11.584 58.4772 11.804 57.9492 12.244C57.4212 12.684 57.0985 13.2853 56.9812 14.048H62.8112C62.6939 13.3 62.3712 12.706 61.8432 12.266C61.3152 11.8113 60.6699 11.584 59.9072 11.584ZM72.3121 21.176C71.3294 21.176 70.3688 21.0587 69.4301 20.824C68.4914 20.5747 67.7434 20.2667 67.1861 19.9L68.3301 17.436C68.8581 17.7733 69.4961 18.052 70.2441 18.272C70.9921 18.4773 71.7254 18.58 72.4441 18.58C73.8961 18.58 74.6221 18.2207 74.6221 17.502C74.6221 17.1647 74.4241 16.9227 74.0281 16.776C73.6321 16.6293 73.0234 16.5047 72.2021 16.402C71.2341 16.2553 70.4348 16.0867 69.8041 15.896C69.1734 15.7053 68.6234 15.368 68.1541 14.884C67.6994 14.4 67.4721 13.7107 67.4721 12.816C67.4721 12.068 67.6848 11.408 68.1101 10.836C68.5501 10.2493 69.1808 9.79467 70.0021 9.472C70.8381 9.14933 71.8208 8.988 72.9501 8.988C73.7861 8.988 74.6148 9.08333 75.4361 9.274C76.2721 9.45 76.9614 9.69933 77.5041 10.022L76.3601 12.464C75.3188 11.8773 74.1821 11.584 72.9501 11.584C72.2168 11.584 71.6668 11.6867 71.3001 11.892C70.9334 12.0973 70.7501 12.3613 70.7501 12.684C70.7501 13.0507 70.9481 13.3073 71.3441 13.454C71.7401 13.6007 72.3708 13.74 73.2361 13.872C74.2041 14.0333 74.9961 14.2093 75.6121 14.4C76.2281 14.576 76.7634 14.906 77.2181 15.39C77.6728 15.874 77.9001 16.5487 77.9001 17.414C77.9001 18.1473 77.6801 18.8 77.2401 19.372C76.8001 19.944 76.1548 20.3913 75.3041 20.714C74.4681 21.022 73.4708 21.176 72.3121 21.176ZM87.6516 20.428C87.3143 20.6773 86.8963 20.868 86.3976 21C85.9136 21.1173 85.4003 21.176 84.8576 21.176C83.4496 21.176 82.3569 20.8167 81.5796 20.098C80.8169 19.3793 80.4356 18.3233 80.4356 16.93V12.068H78.6096V9.428H80.4356V6.546H83.8676V9.428H86.8156V12.068H83.8676V16.886C83.8676 17.3847 83.9923 17.7733 84.2416 18.052C84.5056 18.316 84.8723 18.448 85.3416 18.448C85.8843 18.448 86.3463 18.3013 86.7276 18.008L87.6516 20.428Z" fill="#FFCFDB"/>
</svg>
