<svg width="172" height="267" viewBox="0 0 172 267" fill="none" xmlns="http://www.w3.org/2000/svg">
<path fill-rule="evenodd" clip-rule="evenodd" d="M83.5486 25.2784C80.4935 21.6922 78.4257 17.2974 78.7712 12.3729C79.7668 -1.81613 99.5183 1.30526 103.36 8.46664C107.202 15.628 106.746 33.7935 101.78 35.0734C99.8001 35.5838 95.5816 34.3335 91.2881 31.7456L93.9831 50.8113H78.0705L83.5486 25.2784Z" fill="#CDA178"/>
<path fill-rule="evenodd" clip-rule="evenodd" d="M96.3426 9.50527C94.1832 10.7132 92.6464 12.9766 90.7965 15.9454C90.346 15.7684 89.8553 15.6711 89.3419 15.6711C87.1448 15.6711 85.3638 17.4522 85.3638 19.6492C85.3638 20.7646 85.8228 21.7727 86.5622 22.4951C85.6417 23.7943 84.6101 25.1516 83.428 26.5521C79.0167 23.9055 75.7357 16.1918 79.9476 8.74534C83.5716 -6.17055 104.106 3.08758 108.057 0.571957C108.921 5.98468 106.135 10.3491 96.3426 9.50527Z" fill="#191847"/>
<path fill-rule="evenodd" clip-rule="evenodd" d="M77.4298 108.371L109.972 190.737L131.798 260.369H140.417L107.049 108.371L77.4298 108.371Z" fill="#997659"/>
<path fill-rule="evenodd" clip-rule="evenodd" d="M70.8769 108.371C70.5304 137.315 65.4767 176.283 64.6693 178.087C64.131 179.29 45.5491 194.586 8.9236 223.974L14.8598 230.327C58.0745 205.13 80.6818 190.851 82.6815 187.49C85.6812 182.449 95.447 136.061 103.288 108.371H70.8769Z" fill="#B28B67"/>
<path fill-rule="evenodd" clip-rule="evenodd" d="M8.12962 221.854C6.13597 222.559 4.76262 223.227 4.00956 223.859C3.09367 224.627 1.88518 225.901 0.384093 227.681C1.27564 228.743 9.28813 238.292 24.4216 256.328C27.5072 255.007 28.4753 253.462 27.3257 251.694C26.1761 249.925 25.2353 248.444 24.5033 247.251L19.2667 228.955C19.1659 228.603 18.7989 228.4 18.4468 228.5C18.4408 228.502 18.4348 228.504 18.4288 228.506L15.6346 229.392C13.6959 228.488 12.3372 227.573 11.5582 226.644C10.9254 225.89 10.356 224.593 9.85007 222.753L9.85008 222.753C9.65594 222.047 8.9261 221.632 8.21994 221.826C8.18951 221.834 8.15938 221.843 8.12962 221.854Z" fill="#E4E4E4"/>
<path fill-rule="evenodd" clip-rule="evenodd" d="M128.269 257.155C127.527 259.135 127.156 260.617 127.156 261.6C127.156 262.795 127.356 264.54 127.754 266.834C129.141 266.834 141.606 266.834 165.15 266.834C166.121 263.621 165.56 261.887 163.467 261.63C161.373 261.374 159.634 261.143 158.249 260.937L140.868 253.188C140.533 253.039 140.141 253.189 139.992 253.524C139.99 253.529 139.987 253.535 139.985 253.541L138.868 256.251C136.929 257.155 135.354 257.608 134.142 257.608C133.158 257.608 131.798 257.21 130.063 256.415L130.063 256.415C129.398 256.109 128.611 256.402 128.305 257.067C128.292 257.096 128.28 257.125 128.269 257.155Z" fill="#E4E4E4"/>
<path fill-rule="evenodd" clip-rule="evenodd" d="M99.3095 253.197L140.287 248.75L109.918 108.371H73.2157L99.3095 253.197Z" fill="#436CBB"/>
<path fill-rule="evenodd" clip-rule="evenodd" d="M17.3997 213.726L44.2787 245.541C72.5897 214.621 89.0951 194.445 93.7949 185.014C98.4946 175.583 102.719 150.036 106.469 108.371H65.1494C63.101 145.026 61.7202 164.206 61.0071 165.912C60.2939 167.617 45.7582 183.555 17.3997 213.726Z" fill="#5285E9"/>
<path fill-rule="evenodd" clip-rule="evenodd" d="M137.251 100.357L156.736 119.243C162.406 121.646 167.051 124.299 170.672 127.203C171.487 128.179 172.373 130.049 168.542 129.212C164.71 128.375 160.642 127.666 159.922 128.904C159.202 130.142 161.324 132.039 159.993 133.659C159.106 134.74 156.122 131.304 151.041 123.352L130.779 111.483L137.251 100.357ZM41.9667 83.264L57.0289 83.3202C45.557 120.248 39.4674 139.583 38.76 141.325C37.1683 145.244 40.5365 151.213 41.9769 154.42C37.2857 156.506 37.7855 148.782 31.8677 151.517C26.4662 154.014 22.3573 158.538 16.1166 154.712C15.3493 154.242 14.5086 152.471 16.54 151.087C21.6011 147.639 28.8944 141.604 29.8798 139.618C31.2236 136.909 35.2526 118.125 41.9667 83.264Z" fill="#B28B67"/>
<path fill-rule="evenodd" clip-rule="evenodd" d="M87.8639 40.8114L93.8119 39.7977C103.182 72.7058 151.324 95.1373 154.279 107.439C155.363 111.951 152.095 114.231 153.783 115.605L146.052 121.228C144.743 119.711 141.949 122.487 136.114 120.545C130.28 118.603 87.8639 79.7773 87.8639 40.8114Z" fill="#DA6783"/>
<path fill-rule="evenodd" clip-rule="evenodd" d="M97.8693 45.1864C97.1835 88.7542 122.532 99.8677 116.886 117.345C112.223 131.778 67.5945 147.293 59.8717 133.146C56.7456 127.419 55.3273 120.493 55.1664 112.963C53.1926 118.748 51.6316 123.728 50.4833 127.904C48.5023 135.107 40.8224 136.252 40.8224 139.027L30.7043 136.252C31.3906 132.482 26.6207 130.646 27.8997 122.224C33.63 84.4872 49.0266 57.133 74.0892 40.1613L74.3543 36.3958C74.4594 34.9358 75.7257 33.835 77.1862 33.9341L95.911 35.235C97.3723 35.3341 98.4746 36.6009 98.3731 38.0621C98.3731 38.0621 98.3729 38.0637 98.3705 38.0643L97.8693 45.1864Z" fill="#FF7C9C"/>
</svg>
